# File created by Blade
# Date/Time:  Thu Jan 22 16:21:39 2015
# Frame Rate: 120.000 fps
#------------------------------------------------------
:FULLY-SPECIFIED
:DEGREES
780
root 20.858005 34.800760 -9.331646 -6.980684 7.247272 -6.321707
RightUpLeg 19.043627 -0.393375 26.097035
RightLeg -5.390599 -0.000000 0.000000
RightFoot -11.554930 -7.654039 3.554083
RightToeBase 7.376181 -0.000000 -0.000000
LeftUpLeg -17.393958 -18.775734 -7.398937
LeftLeg 12.466827 -0.000000 -0.000000
LeftFoot 10.516615 9.419850 -8.428077
LeftToeBase 12.452813 -0.000000 -0.000000
Spine 20.260112 1.347684 -32.172649
RightShoulder -8.442558 -0.182431 -40.387465
RightArm 59.214352 64.852127 18.252793
RightForeArm -14.257789 0.000000 27.325186
RightHand 20.269653 0.000000 -49.371996
RightHandThumb1 -24.326973 -0.000000 -32.862282
LeftShoulder -7.714539 39.184789 0.065347
LeftArm 40.357390 -0.888877 -64.763135
LeftForeArm 31.170281 -0.000000 12.191841
LeftHand -16.533563 -0.000000 -11.584616
LeftHandThumb1 -26.253704 0.000000 33.147579
Head 51.005466 41.918876 3.149150
781
root 20.871686 34.808033 -9.263688 -6.968233 7.048700 -6.210777
RightUpLeg 19.207381 -0.364438 25.948149
RightLeg -5.345709 -0.000000 0.000000
RightFoot -11.694401 -7.408024 3.880760
RightToeBase 7.593308 -0.000000 -0.000000
LeftUpLeg -17.344951 -18.586839 -7.527423
LeftLeg 12.618775 -0.000000 -0.000000
LeftFoot 10.232469 9.448554 -8.415986
LeftToeBase 12.457596 -0.000000 -0.000000
Spine 20.077133 1.235044 -31.890154
RightShoulder -8.445180 -0.210946 -40.326805
RightArm 58.657810 64.586276 18.213479
RightForeArm -14.094051 -0.000000 27.320903
RightHand 20.182349 -0.000000 -49.364976
RightHandThumb1 -24.326973 -0.000000 -32.862282
LeftShoulder -7.858327 39.302195 -0.006577
LeftArm 40.396631 -0.764844 -64.799774
LeftForeArm 31.221128 -0.000000 12.126195
LeftHand -16.519520 -0.000000 -11.533599
LeftHandThumb1 -26.253704 0.000000 33.147579
Head 50.900589 41.613566 3.270259
782
root 20.892447 34.813027 -9.193079 -6.944488 6.870495 -6.059855
RightUpLeg 19.361589 -0.383413 25.754027
RightLeg -5.287449 -0.000000 0.000000
RightFoot -11.849563 -7.205312 3.995110
RightToeBase 7.810684 -0.000000 -0.000000
LeftUpLeg -17.289402 -18.463144 -7.700775
LeftLeg 12.745415 -0.000000 -0.000000
LeftFoot 9.967032 9.548326 -8.436026
LeftToeBase 12.484889 -0.000000 -0.000000
Spine 19.883538 1.058728 -31.651629
RightShoulder -8.378884 -0.187841 -40.272812
RightArm 58.232773 64.364228 18.415390
RightForeArm -14.096334 -0.000000 27.483799
RightHand 19.969113 -0.000000 -49.013885
RightHandThumb1 -24.326973 -0.000000 -32.862282
LeftShoulder -8.026825 39.369727 -0.109216
LeftArm 40.343606 -0.693372 -64.882127
LeftForeArm 31.098331 -0.000000 12.135644
LeftHand -16.506303 0.000000 -11.597101
LeftHandThumb1 -26.253704 0.000000 33.147579
Head 50.823006 41.377656 3.404348
783
root 20.908315 34.818922 -9.123084 -6.885044 6.674763 -5.936509
RightUpLeg 19.451458 -0.375889 25.591783
RightLeg -5.175013 -0.000000 0.000000
RightFoot -11.956084 -6.996376 4.041628
RightToeBase 7.805072 -0.000000 -0.000000
LeftUpLeg -17.303205 -18.369361 -7.815846
LeftLeg 12.921212 -0.000000 -0.000000
LeftFoot 9.663248 9.669950 -8.460835
LeftToeBase 12.528970 -0.000000 -0.000000
Spine 19.643093 0.891287 -31.381237
RightShoulder -8.336146 -0.349579 -40.157152
RightArm 57.814829 64.264260 18.480410
RightForeArm -14.027672 -0.000000 27.470469
RightHand 19.901431 -0.000000 -48.834443
RightHandThumb1 -24.326973 -0.000000 -32.862282
LeftShoulder -8.147516 39.420887 -0.180223
LeftArm 40.260912 -0.624248 -64.967814
LeftForeArm 31.031980 0.000000 12.100514
LeftHand -16.397229 0.000000 -11.555975
LeftHandThumb1 -26.253704 0.000000 33.147579
Head 50.755949 41.118889 3.560212
784
root 20.924266 34.823388 -9.051080 -6.855913 6.483684 -5.796002
RightUpLeg 19.554528 -0.372790 25.422252
RightLeg -5.029006 -0.000000 0.000000
RightFoot -12.074113 -6.854599 4.009626
RightToeBase 7.726084 -0.000000 -0.000000
LeftUpLeg -17.285978 -18.245611 -7.965555
LeftLeg 13.107672 -0.000000 -0.000000
LeftFoot 9.384073 9.746721 -8.439507
LeftToeBase 12.449064 -0.000000 -0.000000
Spine 19.445644 0.715182 -31.145865
RightShoulder -8.232582 -0.501773 -40.039922
RightArm 57.110796 64.188280 18.277431
RightForeArm -13.843711 0.000000 27.446780
RightHand 19.980574 -0.000000 -48.789073
RightHandThumb1 -24.326973 -0.000000 -32.862282
LeftShoulder -8.305745 39.528883 -0.234639
LeftArm 40.250361 -0.618410 -65.141917
LeftForeArm 30.956233 -0.000000 12.124474
LeftHand -16.727424 -0.000000 -11.746622
LeftHandThumb1 -26.253704 0.000000 33.147579
Head 50.612040 40.861854 3.672487
785
root 20.937837 34.827040 -8.978130 -6.811919 6.266619 -5.636638
RightUpLeg 19.658771 -0.274896 25.266281
RightLeg -4.890613 -0.000000 0.000000
RightFoot -12.129077 -6.821604 3.801727
RightToeBase 7.477131 -0.000000 -0.000000
LeftUpLeg -17.290305 -18.108752 -8.122164
LeftLeg 13.305896 -0.000000 -0.000000
LeftFoot 9.076001 9.856917 -8.460767
LeftToeBase 12.466412 -0.000000 -0.000000
Spine 19.238077 0.614443 -30.935421
RightShoulder -8.117586 0.022408 -40.213879
RightArm 55.863112 63.479652 18.081231
RightForeArm -13.866777 -0.000000 27.785503
RightHand 19.876547 -0.000000 -48.775810
RightHandThumb1 -24.326973 -0.000000 -32.862282
LeftShoulder -8.464550 39.636010 -0.267490
LeftArm 40.303646 -0.446932 -65.161011
LeftForeArm 31.029977 -0.000000 12.015999
LeftHand -16.691214 -0.000000 -11.390587
LeftHandThumb1 -26.253704 0.000000 33.147579
Head 50.398920 40.549329 3.790216
786
root 20.952593 34.830537 -8.901143 -6.813773 6.059678 -5.463314
RightUpLeg 19.787506 -0.259394 25.083890
RightLeg -4.717762 -0.000000 0.000000
RightFoot -12.230092 -6.748120 3.587151
RightToeBase 7.380794 -0.000000 -0.000000
LeftUpLeg -17.245217 -17.985231 -8.310329
LeftLeg 13.513091 -0.000000 -0.000000
LeftFoot 8.764657 9.963967 -8.469616
LeftToeBase 12.527050 -0.000000 -0.000000
Spine 19.084377 0.492374 -30.746877
RightShoulder -8.059231 0.197894 -40.221758
RightArm 55.128427 63.105265 18.086810
RightForeArm -13.830516 0.000000 27.881509
RightHand 19.754331 -0.000000 -48.605311
RightHandThumb1 -24.326973 -0.000000 -32.862282
LeftShoulder -8.651440 39.708450 -0.298908
LeftArm 40.331151 -0.400176 -65.318285
LeftForeArm 31.092199 -0.000000 11.934936
LeftHand -16.520741 0.000000 -11.554883
LeftHandThumb1 -26.253704 0.000000 33.147579
Head 50.249400 40.351352 3.973894
